<svg width="27px" height="27px" viewBox="0 0 27 27" version="1.1" xmlns="http://www.w3.org/2000/svg" xmlns:xlink="http://www.w3.org/1999/xlink">
                <g id="Личкаб" stroke="none" stroke-width="1" fill="none" fill-rule="evenodd">
                    <g id="Личный-кабинет" transform="translate(-328.000000, -1256.000000)" stroke="#2B5DA8">
                        <g id="Group-5-Copy" transform="translate(328.000000, 1256.000000)">
                            <circle id="Oval" cx="13.5" cy="13.5" r="13"></circle>
                            <path d="M9.38554839,6.4 L18.3948387,6.4 L18.3948387,8.95019355 L12.2492903,8.95019355 L12.2492903,12.0020645 C12.4861947,11.9602579 12.7753531,11.9184518 13.1167742,11.8766452 C13.4581953,11.8348385 13.7961274,11.8139355 14.1305806,11.8139355 C14.9109716,11.8139355 15.6286419,11.8905799 16.2836129,12.043871 C16.9385839,12.1971621 17.4994815,12.4514821 17.9663226,12.8068387 C18.4331636,13.1621953 18.7989664,13.6290294 19.0637419,14.2073548 C19.3285175,14.7856803 19.4609032,15.492899 19.4609032,16.3290323 C19.4609032,17.1512299 19.3250336,17.8689002 19.0532903,18.4820645 C18.781547,19.0952289 18.3913574,19.6038689 17.8827097,20.008 C17.374062,20.4121311 16.7609068,20.7187086 16.0432258,20.9277419 C15.3255448,21.1367752 14.5207787,21.2412903 13.6289032,21.2412903 C13.3919988,21.2412903 13.0958727,21.2343227 12.7405161,21.2203871 C12.3851595,21.2064515 12.0089052,21.1855485 11.6117419,21.1576774 C11.2145787,21.1298063 10.8209052,21.094968 10.4307097,21.0531613 C10.0405142,21.0113546 9.69213057,20.9556133 9.38554839,20.8859355 L9.38554839,6.4 Z M13.8379355,18.8792258 C14.2002599,18.8792258 14.538192,18.8339359 14.8517419,18.7433548 C15.1652919,18.6527737 15.4405149,18.5134203 15.6774194,18.3252903 C15.9143238,18.1371603 16.1024509,17.8967757 16.2418065,17.604129 C16.381162,17.3114824 16.4508387,16.9561311 16.4508387,16.5380645 C16.4508387,16.0363846 16.3741943,15.6322596 16.2209032,15.3256774 C16.0676121,15.0190952 15.858582,14.7787105 15.5938065,14.6045161 C15.3290309,14.4303217 15.0259372,14.3153551 14.6845161,14.2596129 C14.3430951,14.2038707 13.9772923,14.176 13.5870968,14.176 C13.391999,14.176 13.1481305,14.1934192 12.8554839,14.2282581 C12.5628372,14.2630969 12.3607748,14.2944515 12.2492903,14.3223226 L12.2492903,18.7747097 C12.4025814,18.8165163 12.6359984,18.844387 12.9495484,18.8583226 C13.2630983,18.8722581 13.5592244,18.8792258 13.8379355,18.8792258 Z" id="Б"></path>
                        </g>
                    </g>
                </g>
            </svg>