<svg width="23px" height="23px" viewBox="0 0 23 23" version="1.1" xmlns="http://www.w3.org/2000/svg" xmlns:xlink="http://www.w3.org/1999/xlink">
                <g id="Личкаб" stroke="none" stroke-width="1" fill="none" fill-rule="evenodd">
                    <g id="Личный-кабинет" transform="translate(-90.000000, -1256.000000)" fill="#2B5DA8" fill-rule="nonzero">
                        <g id="wallet" transform="translate(90.000000, 1256.000000)">
                            <path d="M23,10.714345 L21.8852963,10.714345 L21.8852963,5.6381168 C21.8852963,4.42113797 20.8852058,3.43108494 19.6558889,3.43108494 L18.1461442,3.43108494 L16.6011553,0.681120773 C16.3656848,0.260854764 15.9175693,0 15.4315732,0 C15.2050526,0 14.9803357,0.0578303611 14.7819133,0.166828916 L8.85255267,3.43101626 L2.22940742,3.43101626 C1.00009049,3.43101626 0,4.42106929 0,5.63804811 L0,20.7929681 C0,22.009947 1.00009049,23 2.22940742,23 L19.6558889,23 C20.8852058,23 21.8852963,22.009947 21.8852963,20.7929681 L21.8852963,16.3422282 L23,16.3422282 L23,10.714345 Z M19.6558889,4.31385647 C20.3425275,4.31385647 20.9034523,4.83027748 20.9787973,5.49106834 L19.3031688,5.49106834 L18.642339,4.31385647 L19.6558889,4.31385647 Z M15.2157368,0.938404066 C15.4248435,0.822331251 15.7062426,0.903513539 15.8216883,1.10969732 L18.2829585,5.49065624 L6.94596323,5.49065624 L15.2157368,0.938404066 Z M20.9935056,20.7929681 C20.9935056,21.5230593 20.3933125,22.1172285 19.6558195,22.1172285 L2.22940742,22.1172285 C1.49191439,22.1172285 0.89172134,21.5230593 0.89172134,20.7929681 L0.89172134,5.6381168 C0.89172134,4.90802566 1.49191439,4.31385647 2.22940742,4.31385647 L7.2491471,4.31385647 L5.11069484,5.49113702 L2.50810069,5.49113702 C2.26152964,5.49113702 2.06220533,5.6888729 2.06220533,5.93255713 C2.06220533,6.17624136 2.26152964,6.37397723 2.50810069,6.37397723 L3.50687299,6.37397723 L19.7990166,6.37397723 L20.9935056,6.37397723 L20.9935056,10.7147571 L17.7327874,10.7147571 C16.2185331,10.7147571 14.9861635,11.9348266 14.9861635,13.4338143 L14.9861635,13.6236517 C14.9861635,15.1227081 16.2186025,16.3427089 17.7327874,16.3427089 L20.9935056,16.3427089 L20.9935056,20.7929681 Z M22.1082093,15.4594566 L21.8852963,15.4594566 L17.7327874,15.4594566 C16.7099407,15.4594566 15.8778849,14.6358204 15.8778849,13.623171 L15.8778849,13.4333335 C15.8778849,12.4207528 16.7098713,11.5970479 17.7327874,11.5970479 L21.8852963,11.5970479 L22.1082093,11.5970479 L22.1082093,15.4594566 Z M19.0985023,13.5645164 C19.0985023,14.1030531 18.6579491,14.539116 18.114022,14.539116 C17.5700255,14.539116 17.1295416,14.1029844 17.1295416,13.5645164 C17.1295416,13.0260484 17.5700949,12.5899169 18.114022,12.5899169 C18.6580185,12.5898482 19.0985023,13.0263919 19.0985023,13.5645164 Z" id="Shape"></path>
                        </g>
                    </g>
                </g>
            </svg>
