<svg width="29px" height="27px" viewBox="0 0 29 27" version="1.1" xmlns="http://www.w3.org/2000/svg">
                    <g id="Page-1" stroke="none" stroke-width="1" fill="none" fill-rule="evenodd">
                        <g id="✓-6-из-49-десктоп" transform="translate(-953.000000, -22.000000)" stroke="#2B5DA8">
                            <g id="Group-4" transform="translate(953.000000, 22.000000)">
                                <g id="chat">
                                    <path d="M21.3911983,23.8482632 C22.9966337,24.8023936 25.1004332,25.5289147 27.3307315,26.0455953 C26.6110023,24.4476914 26.1880251,22.4068777 25.992251,20.1077382 C25.9705082,19.8620228 26.0407298,19.6169281 26.1887936,19.4194853 C27.679796,17.4288167 28.466127,15.1190835 28.466127,12.7368421 C28.466127,6.01494054 22.2135835,0.51754386 14.4997208,0.51754386 C6.78585818,0.51754386 0.533314723,6.01494054 0.533314723,12.7368421 C0.533314723,19.4587437 6.78585818,24.9561404 14.4997208,24.9561404 C15.8688421,24.9561404 17.2083211,24.7835074 18.5036384,24.4419524 C17.2500324,23.6430015 17.0939304,23.4225103 17.0965841,22.9099513 C17.0996701,22.5564309 17.2916501,22.2254549 17.5972435,22.0453001 C18.0299184,21.7907761 18.5791771,21.8887263 18.8951841,22.2641265 C19.2145326,22.4967729 20.2957444,23.1825818 21.3911985,23.8482636 Z M21.3911985,23.8482636 C21.3918812,23.8486785 21.392564,23.8490934 21.3932468,23.8495082 L21.3891382,23.8470386 C21.3898248,23.8474468 21.3905115,23.847855 21.3911983,23.8482632 Z" id="Combined-Shape"></path>
                                </g>
                            </g>
                        </g>
                    </g>
                </svg>
