<svg width="112" height="59" xmlns="http://www.w3.org/2000/svg" xmlns:xlink="http://www.w3.org/1999/xlink"><defs><path id="a" d="M0 0h111.814v58.628H0z"/></defs><g fill="none" fill-rule="evenodd"><path d="M42.077 17.371c2.624 0 4.468-1.34 4.468-3.73v-.033c0-2.096-1.392-2.972-3.86-3.607-2.103-.533-2.625-.792-2.625-1.58v-.036c0-.584.54-1.049 1.564-1.049.835 0 1.67.293 2.556.808.208.12.417.19.678.19.695 0 1.251-.533 1.251-1.22 0-.516-.294-.876-.59-1.049C44.424 5.379 43.138 5 41.659 5 39.174 5 37.4 6.444 37.4 8.626v.034c0 2.389 1.582 3.058 4.034 3.677 2.034.515 2.451.859 2.451 1.528v.036c0 .703-.662 1.132-1.757 1.132-1.182 0-2.19-.41-3.111-1.082a1.304 1.304 0 0 0-.765-.24c-.696 0-1.252.533-1.252 1.22 0 .412.209.79.504.996a7.92 7.92 0 0 0 4.573 1.444zM67.7 10.224h-.738a1.122 1.122 0 0 1-1.129-1.118 1.12 1.12 0 0 1 1.13-1.115h.737V6.839c0-.721.591-1.306 1.322-1.306.73 0 1.32.585 1.32 1.306v1.152h1.497a1.12 1.12 0 0 1 1.13 1.115 1.12 1.12 0 0 1-1.13 1.118h-1.496v3.934c0 .601.261.894.851.894.087 0 .262-.019.313-.019.593 0 1.095.482 1.095 1.084 0 .463-.311.842-.677.979-.486.189-.94.256-1.512.256-1.617 0-2.713-.633-2.713-2.765v-4.363zM76.48 20c1.582 0 2.364-.705 3.147-2.578l3.25-7.714c.054-.12.122-.412.122-.618 0-.688-.573-1.203-1.25-1.203-.68 0-1.06.447-1.27.996l-1.948 5.344-2.015-5.36c-.228-.62-.609-.98-1.27-.98-.73 0-1.305.515-1.305 1.253 0 .172.07.431.14.602l3.182 7.284-.087.206c-.243.465-.47.552-.939.552-.192 0-.33-.036-.556-.104a1.227 1.227 0 0 0-.434-.069c-.54 0-1.044.43-1.044 1.065 0 .636.452.945.835 1.082.435.155.852.242 1.442.242zm-15.904-9.776h-.795c-.626 0-1.13-.5-1.13-1.118a1.12 1.12 0 0 1 1.13-1.115h.795V6.839c0-.721.592-1.306 1.322-1.306.73 0 1.321.585 1.321 1.306v1.152h1.165c.626 0 1.13.497 1.13 1.115 0 .619-.504 1.118-1.13 1.118H63.22v3.934c0 .601.262.894.852.894.088 0 .262-.019.313-.019.592 0 1.097.482 1.097 1.084 0 .463-.313.842-.68.979-.485.189-.938.256-1.512.256-1.616 0-2.713-.633-2.713-2.765v-4.363zM55.23 9.193c-.626-.74-1.495-1.375-2.903-1.375-2.208 0-4.242 1.684-4.242 4.759v.034c0 3.077 2.07 4.76 4.242 4.76 1.374 0 2.26-.635 2.903-1.496v.122c0 .722.592 1.305 1.323 1.305.73 0 1.32-.583 1.32-1.305V9.193c0-.722-.59-1.306-1.32-1.306-.73 0-1.323.584-1.323 1.289v.017zm-2.225.841c1.234 0 2.26 1.015 2.26 2.543v.034c0 1.53-1.026 2.544-2.26 2.544-1.234 0-2.277-1.014-2.277-2.544v-.034c0-1.547 1.043-2.543 2.277-2.543zm45.022 22.247h5.903c.586 0 1.07-.451 1.07-1.018 0-.568-.484-1.034-1.07-1.034h-3.831l4.314-4.59c.414-.433.587-.75.587-1.234v-.05c0-.602-.535-1.019-1.277-1.019h-5.747c-.588 0-1.07.468-1.07 1.036 0 .567.482 1.016 1.07 1.016h3.658l-4.297 4.59c-.414.435-.587.752-.587 1.234v.051c0 .601.534 1.018 1.277 1.018zM89.23 35c1.57 0 2.347-.683 3.123-2.502l3.229-7.492c.05-.117.12-.4.12-.6 0-.669-.57-1.17-1.243-1.17-.672 0-1.053.435-1.26.969l-1.933 5.19-2.002-5.207c-.224-.6-.605-.952-1.26-.952-.725 0-1.294.501-1.294 1.218 0 .168.07.417.137.585l3.16 7.074-.087.2c-.242.452-.466.535-.933.535-.188 0-.328-.034-.552-.1a1.297 1.297 0 0 0-.431-.066c-.535 0-1.036.417-1.036 1.034s.45.918.829 1.05c.43.152.845.234 1.433.234zm-4.17-13.732c0-.701-.586-1.268-1.311-1.268-.726 0-1.313.567-1.313 1.268v3.237c-.62-.717-1.484-1.335-2.882-1.335-2.193 0-4.212 1.636-4.212 4.622v.033c0 2.988 2.055 4.622 4.212 4.622 1.364 0 2.243-.617 2.882-1.452v.117c0 .701.587 1.27 1.313 1.27.725 0 1.31-.569 1.31-1.27v-9.844zm-4.832 4.055c1.224 0 2.244.985 2.244 2.47v.032c0 1.486-1.02 2.47-2.244 2.47-1.226 0-2.262-.984-2.262-2.47v-.033c0-1.502 1.036-2.47 2.262-2.47zm-9.47 5.79c0 .7.586 1.268 1.311 1.268s1.313-.568 1.313-1.269v-9.844c0-.701-.588-1.268-1.313-1.268s-1.31.567-1.31 1.268v9.844zm-2.376-6.608c0-.7-.586-1.269-1.311-1.269s-1.311.568-1.311 1.27v3.82c0 1.202-.639 1.819-1.64 1.819s-1.589-.617-1.589-1.82v-3.82c0-.7-.586-1.269-1.31-1.269-.726 0-1.314.568-1.314 1.27v4.621c0 2.052 1.157 3.32 3.142 3.32 1.33 0 2.106-.683 2.71-1.435v.1c0 .701.587 1.27 1.312 1.27.725 0 1.311-.569 1.311-1.27v-6.607zm-19.066 6.607c0 .701.588 1.27 1.312 1.27.725 0 1.312-.569 1.312-1.27v-3.82c0-1.203.639-1.82 1.64-1.82s1.587.617 1.587 1.82v3.82c0 .701.588 1.27 1.313 1.27s1.311-.569 1.311-1.27V26.49c0-2.052-1.156-3.32-3.142-3.32-1.328 0-2.104.685-2.709 1.435v-3.337c0-.701-.587-1.268-1.312-1.268-.724 0-1.312.567-1.312 1.268v9.844zm-11.143 1.169h7.922c.64 0 1.175-.5 1.175-1.118 0-.617-.535-1.134-1.175-1.134H40.52l6.265-7.042c.31-.368.484-.751.484-1.202v-.05c0-.617-.535-1.134-1.175-1.134H38.38c-.639 0-1.175.517-1.175 1.134 0 .618.536 1.118 1.175 1.118h5.367l-6.266 7.042c-.31.35-.482.75-.482 1.2v.052c0 .617.535 1.134 1.173 1.134z" fill="#2B5DA8"/><mask id="b" fill="#fff"><use xlink:href="#a"/></mask><path d="M110.177 21.987c-.83 0-1.637.664-1.637 1.637 0 .971.807 1.637 1.637 1.637.835 0 1.637-.666 1.637-1.637 0-.973-.802-1.637-1.637-1.637zm0 .297c.672 0 1.316.541 1.316 1.34 0 .797-.644 1.338-1.316 1.338a1.32 1.32 0 0 1-1.31-1.338c0-.799.638-1.34 1.31-1.34zm-.009.44h-.597v1.762h.219v-.666h.335l.495.666h.248l-.508-.674c.301-.065.475-.272.475-.533 0-.321-.257-.555-.667-.555zm.009.207c.271 0 .429.133.429.348 0 .22-.158.34-.43.34h-.386v-.688h.387z" fill="#FFF" mask="url(#b)"/><path d="M10.799 21.49l-8.172 1.557c-.361.068-.75.178-1.118.137a1.752 1.752 0 0 1-.488-.13 1.66 1.66 0 0 1-.879-2.2c.169-.383.627-.84.906-1.167l5.124-5.978-4.247-7.546a3.353 3.353 0 0 1-.157-.304 1.642 1.642 0 0 1 0-1.335 1.709 1.709 0 0 1 1.868-.977c.25.045.61.212.887.322l7.736 3.091L18.332.563c.032-.034.066-.064.1-.097A1.721 1.721 0 0 1 20.29.14c.65.278 1.031.907 1.02 1.56-.001.048-.001.093-.004.14l-.64 8.728 7.566 3.475c.272.123.641.272.844.422a1.658 1.658 0 0 1-.453 2.917c-.113.04-.217.065-.333.094l-8.503 2.068C23.397 38.978 40.703 53.71 61.51 53.71c12.726 0 24.143-5.512 31.917-14.24.24-.276.594-.45.991-.45 1.068 0 1.645 1.14 1.063 2.011-.175.261-.412.56-.679.87-1.22 1.418-2.734 2.901-4.126 4.163-8.607 7.798-20.1 12.563-32.724 12.563-23.06 0-42.343-15.887-47.153-37.138z" fill="#FECC00" mask="url(#b)"/></g></svg>