<?xml version="1.0" encoding="UTF-8"?>
<svg width="142px" height="85px" viewBox="0 0 142 85" version="1.1" xmlns="http://www.w3.org/2000/svg" xmlns:xlink="http://www.w3.org/1999/xlink">
    <!-- Generator: Sketch 51.3 (57544) - http://www.bohemiancoding.com/sketch -->
    <title>TBlog</title>
    <desc>Created with Sketch.</desc>
    <defs></defs>
    <g id="Page-1" stroke="none" stroke-width="1" fill="none" fill-rule="evenodd">
        <g id="✓--Телебинго-" transform="translate(-682.000000, -103.000000)">
            <g id="TBlog" transform="translate(682.000000, 103.000000)">
                <path d="M24.4370916,9.92856879 L24,1.63809962 L48.5977922,1.63809962 L48.1096379,9.92856879 L41.3497717,9.92856879 L41.3497717,36.2831161 L31.2226077,36.2831161 L31.2226077,9.92856879 L24.4370916,9.92856879 Z M61.4402911,29.374494 C62.587615,29.374494 63.804445,29.288636 65.08054,29.1181471 C66.3581048,28.9477055 67.6258553,28.7181214 68.8935109,28.4278844 L69.9475754,34.7479611 C68.5084778,35.4479944 66.8377724,35.9930679 64.9348428,36.3943209 C63.0334304,36.7944882 60.9251593,37 58.6120682,37 C50.0964394,37 45.8388857,32.4620322 45.8388857,23.395395 C45.8388857,21.0077958 46.1122635,18.9515925 46.6610105,17.2119642 C47.2099945,15.4808793 48.0234902,14.0471114 49.0944807,12.9217528 C50.1655187,11.7962525 51.4841897,10.9681638 53.0602607,10.4313504 C54.6376592,9.89349868 56.4529713,9.62148116 58.5101797,9.62148116 C60.565776,9.62148116 62.3216335,9.91893985 63.7790321,10.5160757 C65.2348187,11.1217548 66.4345804,11.9413946 67.3769895,12.9978875 C68.3192089,14.0471114 69.0137953,15.2923597 69.4506972,16.7175843 C69.8868405,18.1499834 70.1017119,19.7023193 70.1017119,21.3741202 C70.1017119,21.8854924 70.0678597,22.4149425 69.9986381,22.9517086 C69.9303648,23.489702 69.8528461,24.0009325 69.7591599,24.4786034 C69.6646677,24.9559911 69.5614517,25.3996775 69.4594684,25.7926232 C69.3562524,26.1842472 69.2614758,26.4913348 69.1765608,26.7138389 L55.9648644,26.7138389 C56.0341808,27.1657854 56.1883648,27.5660943 56.4191191,27.889891 C56.6510588,28.2235998 56.9764477,28.4956174 57.396708,28.7181214 C57.8154985,28.9308548 58.3559009,29.1012965 59.0151179,29.2125013 C59.6745719,29.3238005 60.4810981,29.374494 61.4402911,29.374494 Z M60.8997464,20.3163058 C60.8828203,19.3010664 60.6777159,18.5683702 60.2828684,18.124731 C59.8896329,17.6725957 59.2728972,17.4500917 58.4322343,17.4500917 C57.6102518,17.4500917 56.9764477,17.6810446 56.5221929,18.1499834 C56.0681752,18.610662 55.8191672,19.3359949 55.7852676,20.3163058 L60.8997464,20.3163058 Z M83.5086985,36.7437947 C82.1038324,37.0338901 80.758421,37.067733 79.4651154,36.8465506 C78.1706245,36.6240466 77.0232532,36.1719585 76.028596,35.490239 C75.0354086,34.8071036 74.238839,33.9210996 73.638887,32.8294423 C73.0389351,31.7366993 72.7391014,30.4660098 72.7391014,29.0166185 L72.7391014,1.04922393 L82.4547763,0 L82.4547763,27.225211 C82.4547763,27.8391975 82.55785,28.3940415 82.75461,28.888563 C82.95137,29.3829429 83.200378,29.8180388 83.5002117,30.1929538 C83.8001877,30.5687657 84.1257187,30.8843966 84.485102,31.1406491 C84.8444852,31.3957688 85.1964722,31.5831083 85.5390242,31.7027148 L83.5086985,36.7437947 Z M102.338721,29.374494 C103.486188,29.374494 104.702875,29.288636 105.979207,29.1181471 C107.256393,28.9477055 108.524001,28.7181214 109.791799,28.4278844 L110.845721,34.7479611 C109.407003,35.4479944 107.73606,35.9930679 105.833415,36.3943209 C103.931813,36.7944882 101.823827,37 99.5104511,37 C90.9945852,37 86.7374583,32.4620322 86.7374583,23.395395 C86.7374583,21.0077958 87.0106465,18.9515925 87.5593934,17.2119642 C88.1084248,15.4808793 88.9219205,14.0471114 89.9929111,12.9217528 C91.0639016,11.7962525 92.3826201,10.9681638 93.958691,10.4313504 C95.536374,9.89349868 97.3515439,9.62148116 99.40861,9.62148116 C101.464443,9.62148116 103.220348,9.91893985 104.67732,10.5160757 C106.133249,11.1217548 107.333153,11.9413946 108.275372,12.9978875 C109.217639,14.0471114 109.912083,15.2923597 110.34927,16.7175843 C110.785223,18.1499834 111,19.7023193 111,21.3741202 C111,21.8854924 110.966006,22.4149425 110.896784,22.9517086 C110.828795,23.489702 110.751371,24.0009325 110.657543,24.4786034 C110.562956,24.9559911 110.459882,25.3996775 110.357709,25.7926232 C110.254493,26.1842472 110.159906,26.4913348 110.074707,26.7138389 L96.8632473,26.7138389 C96.9327534,27.1657854 97.0868899,27.5660943 97.3175021,27.889891 C97.5496314,28.2235998 97.8749728,28.4956174 98.2951383,28.7181214 C98.7138814,28.9308548 99.2544261,29.1012965 99.9137853,29.2125013 C100.573145,29.3238005 101.379244,29.374494 102.338721,29.374494 Z M101.798272,20.3163058 C101.781345,19.3010664 101.576146,18.5683702 101.181536,18.124731 C100.788016,17.6725957 100.171138,17.4500917 99.3309017,17.4500917 C98.5088244,17.4500917 97.8749728,17.6810446 97.4208603,18.1499834 C96.9667478,18.610662 96.7175976,19.3359949 96.6836979,20.3163058 L101.798272,20.3163058 Z" id="Fill-1" fill="#FFFFFF"></path>
                <path d="M108,57.830431 C108,52.506439 109.240363,48.5389991 111.721187,45.9167117 C114.20201,43.3056339 117.804447,42 122.530051,42 C127.293427,42 130.897077,43.3251557 133.338819,45.9674874 C135.779202,48.6083466 137,52.5856187 137,57.8896614 C137,63.322567 135.769444,67.3605895 133.298524,70.0226804 C130.827459,72.6732294 127.215264,74 122.470094,74 C117.724876,74 114.131955,72.6732294 111.6806,70.0226804 C109.230556,67.3605895 108,63.3027602 108,57.830431 Z M125.659627,57.9491768 C125.659627,56.5334418 125.600738,55.3578583 125.482377,54.4210489 C125.365133,53.482862 125.178124,52.7354759 124.921449,52.1872028 C124.675794,51.6388346 124.350762,51.2505358 123.957326,51.0216414 C123.562482,50.7911321 123.100786,50.6726237 122.578794,50.6726237 C122.047335,50.6726237 121.574328,50.7812999 121.180746,51.0016921 C120.777503,51.2208969 120.442713,51.6091957 120.176279,52.1674435 C119.911205,52.7256438 119.714438,53.4728874 119.586028,54.4013846 C119.457617,55.3282668 119.399116,56.513635 119.399116,57.9491768 C119.399116,59.374744 119.457617,60.561632 119.586028,61.5082736 C119.714438,62.4549152 119.911205,63.2136534 120.166472,63.7815433 C120.423294,64.3496233 120.737207,64.7479917 121.132003,64.9770286 C121.525488,65.2073955 121.998301,65.3259988 122.549325,65.3259988 C123.071318,65.3259988 123.533013,65.2073955 123.92674,64.9770286 C124.321585,64.7479917 124.646471,64.3496233 124.89198,63.7815433 C125.147539,63.2136534 125.344063,62.4549152 125.472473,61.5082736 C125.600738,60.561632 125.659627,59.374744 125.659627,57.9491768 Z" id="Fill-3" fill="#FFFFFF"></path>
                <path d="M125.741353,3.45335469 C127.55746,5.40992104 129.993164,8.99989728 131.810648,10.9579882 C134.418225,10.477184 137.027036,9.99671324 139.630434,9.52024445 C141.003328,9.27107619 141.665085,10.5540307 140.996491,11.8629501 C139.85572,14.096079 138.713621,16.3292554 137.571569,18.5624319 C138.855629,21.0885121 140.507793,23.8528028 141.785017,26.3734995 C142.352529,27.4949472 141.742618,28.0630794 140.58694,28.0398777 C137.782991,27.98366 135.009049,27.757884 132.221386,27.6428283 C128.486761,37.9759265 124.756076,45.527011 120.889317,51.5295363 C114.97561,60.7098382 108.177708,67.7229004 101.090612,74.1101833 C87.5207784,86.3397712 59.7123729,90.4089318 53.1545702,74.9878464 C52.5638879,73.5980783 53.7933008,72.1330832 54.6990516,73.9951276 C55.638085,75.9242998 56.9656363,77.37848 58.5905942,78.366911 C69.4111278,84.9581975 87.5112352,72.7710588 95.3335851,65.71974 C100.959381,60.6497615 106.376461,54.5555728 111.134585,47.120878 C115.345469,40.5431694 119.041732,32.91419 121.915379,24.0171681 L113.909856,20.0096088 C112.645024,19.3755399 112.93303,17.6956789 114.055758,17.1274038 C116.364694,15.959505 120.123913,14.8272425 122.43527,13.6538172 C122.83243,11.0701854 123.503636,6.63670548 123.892439,4.0571232 C124.050827,3.00294614 124.966406,2.61952241 125.741353,3.45335469" id="Fill-4" fill="#FECC00"></path>
                <path d="M0,33 L16.8745436,33 C18.4895058,33 20.0375098,33.1916327 21.5095458,33.58525 C22.9801117,33.9786266 24.2691983,34.5938733 25.3838238,35.4220827 C26.5000616,36.2490403 27.3845541,37.3191016 28.0373012,38.6323631 C28.6915183,39.9443727 29.0185795,41.507816 29.0185795,43.3248114 C29.0185795,45.4247779 28.6247024,47.2218878 27.8261364,48.7153225 C27.0288508,50.2088535 25.6443536,51.3190229 23.6817971,52.0456863 L23.6817971,52.4706967 C24.605791,52.8341728 25.4616413,53.2673685 26.2396741,53.7824656 C27.0193192,54.2975626 27.6817402,54.932743 28.2405467,55.6795808 C28.797978,56.4263222 29.2297442,57.3046064 29.5379793,58.3248337 C29.8457876,59.3432794 30,60.545028 30,61.9184757 C30,63.7352303 29.7491441,65.3804304 29.2490919,66.8639946 C28.7499881,68.3476069 27.9038117,69.6195085 26.7113687,70.6796031 C25.5189256,71.7396495 23.9421372,72.5565438 21.970049,73.1315381 C19.999431,73.7065324 17.5380552,74 14.5958801,74 L0,74 L0,33 Z M10.9038401,56.6180511 L10.9038401,65.338926 L14.2497084,65.338926 C15.6343952,65.338926 16.7109893,65.0170987 17.4810554,64.3704107 C18.2494144,63.7252635 18.6339969,62.6237128 18.6339969,61.0700919 C18.6339969,59.6767106 18.2878726,58.5866193 17.5955766,57.7997698 C16.9031857,57.0129203 15.8075285,56.6180511 14.3069927,56.6180511 L10.9038401,56.6180511 Z M10.9038401,40.9942116 L10.9038401,48.6238877 L14.2497084,48.6238877 C16.7888068,48.6238877 18.057455,47.3018631 18.057455,44.658151 C18.057455,43.344745 17.7016569,42.4062746 16.99044,41.8412472 C16.2789385,41.2761716 15.2881287,40.9942116 14.0193382,40.9942116 L10.9038401,40.9942116 Z" id="Fill-5" fill="#FFFFFF"></path>
                <path d="M34.4915796,73 L34.4915796,62.0557613 L32,61.6046625 L32,53.3350578 L45.7042971,53.3350578 L45.7042971,73 L34.4915796,73 Z M32.5927224,45.586337 C32.5927224,44.5447599 32.7410614,43.6650767 33.0271579,42.9542514 C33.3142783,42.2433307 33.7291109,41.6716463 34.282676,41.2316615 C34.8375578,40.7904366 35.5285389,40.4710851 36.3595693,40.2810961 C37.190746,40.0908685 38.1392481,40 39.207465,40 C40.2751455,40 41.2337417,40.0908685 42.0844238,40.2810961 C42.934911,40.4710851 43.6469093,40.7904366 44.2203212,41.2316615 C44.7932455,41.6716463 45.2404084,42.2433307 45.5459127,42.9542514 C45.8515146,43.6650767 46,44.5447599 46,45.586337 C46,46.5879891 45.8515146,47.4280337 45.5557142,48.1092373 C45.2585484,48.7902978 44.8242105,49.3294031 44.2494819,49.7408633 C43.6765088,50.1510832 42.9645105,50.4419101 42.1139746,50.6121514 C41.2647066,50.7823926 40.2948948,50.8732611 39.207465,50.8732611 C38.1392481,50.8732611 37.190746,50.7823926 36.3595693,50.6121514 C35.5285389,50.4419101 34.8375578,50.1524665 34.282676,49.7408633 C33.7291109,49.3308818 33.3142783,48.7902978 33.0271579,48.1092373 C32.7410614,47.4280337 32.5927224,46.5879891 32.5927224,45.586337 Z" id="Fill-6" fill="#FFFFFF"></path>
                <path d="M60.8346884,73 L50,73 L50,42.8320464 L58.5988357,42.8320464 L59.143098,45.9369227 C59.6022648,45.4014249 60.1275856,44.8954118 60.7100608,44.4191197 C61.2936197,43.9425441 61.9326838,43.5166218 62.6395039,43.1595444 C63.3477847,42.8026089 64.1113822,42.5243938 64.9238413,42.3162523 C65.7349811,42.1082525 66.5948882,42 67.5131277,42 C69.3859347,42 70.9333906,42.276892 72.1564377,42.8320464 C73.379202,43.3874842 74.3527582,44.2305401 75.0705098,45.3606943 C75.7868477,46.492266 76.2838034,47.9105581 76.5695281,49.6252568 C76.8565251,51.3415622 77,53.373978 77,55.7141882 L77,73 L66.165877,73 L66.165877,54.6038322 C66.165877,53.265631 66.0221665,52.2734031 65.7255103,51.6381107 C65.4303148,51.0041413 64.846803,50.686566 63.9868959,50.686566 C63.318006,50.686566 62.7545194,50.7961416 62.2861174,51.0139223 C61.8190347,51.2318449 61.3315498,51.5297637 60.8346884,51.9064975 L60.8346884,73 Z" id="Fill-7" fill="#FFFFFF"></path>
                <path d="M78,76.320496 C78,75.7473416 78.0959106,75.193922 78.2867904,74.6601428 C78.4772938,74.1263637 78.7451657,73.6219747 79.0792055,73.1568196 C79.4132453,72.6931717 79.7946285,72.2573596 80.2327205,71.8525861 C80.6724125,71.4474829 81.1499886,71.0818021 81.6650725,70.765246 C80.8914819,70.2509661 80.3194541,69.5982606 79.9569894,68.7981335 C79.5849242,67.9966406 79.4038801,67.087431 79.4038801,66.0604725 C79.4038801,65.5658331 79.4796956,65.0615383 79.6322677,64.5375088 C79.7851693,64.0134792 79.9947324,63.5189811 80.2720635,63.0453952 C80.5386177,62.5705376 80.8726575,62.1263418 81.2635,61.7200611 C81.6463893,61.3248488 82.0846224,60.9689176 82.580976,60.6720021 C81.3783762,59.9209998 80.4249651,58.8631912 79.7176836,57.5097858 C79.0115787,56.1451707 78.6587144,54.4848646 78.6587144,52.5277373 C78.6587144,50.9162734 78.9736945,49.4719188 79.603984,48.1674027 C80.2327205,46.8728718 81.1215637,45.7660796 82.246842,44.8567287 C83.3732498,43.9363094 84.7283746,43.2343378 86.3027571,42.7411113 C87.8771867,42.2466132 89.6137889,42 91.5126108,42 C92.2768833,42 93.049015,42.0687653 93.8227467,42.1974884 C94.5950196,42.3249869 95.5294651,42.5129611 96.6183181,42.7706427 L107,42.7411113 L107,49.5320178 L103.90832,49.2057122 C104.060939,49.6007832 104.185369,50.1248127 104.280103,50.7679099 C104.376013,51.4094528 104.423639,52.0820814 104.423639,52.7741621 C104.423639,54.3952813 104.117742,55.8285204 103.507971,57.084053 C102.8966,58.329412 102.037735,59.3774711 100.921728,60.2181979 C99.8047321,61.0587835 98.4792558,61.6905297 96.9332511,62.1149908 C95.3970351,62.5410062 93.6793515,62.7582293 91.789989,62.7582293 C91.3029064,62.7582293 90.8538963,62.7385888 90.4630067,62.7091045 C90.0723053,62.6698705 89.7098406,62.629412 89.3660592,62.5803814 C89.2135812,62.7385888 89.0891045,62.9164366 88.9928175,63.1141605 C88.8982247,63.3116489 88.8510224,63.5189811 88.8510224,63.7373817 C88.8510224,64.2306081 89.0227013,64.6468739 89.3660592,64.9829292 C89.7098406,65.3179011 90.2251598,65.4861407 90.9120639,65.4861407 L94.947978,65.4861407 C96.6087177,65.4861407 98.1546753,65.6148166 99.5857096,65.8727808 C101.016556,66.1289553 102.267487,66.6138922 103.326551,67.3256134 C104.385473,68.0373817 105.216054,69.0349501 105.816601,70.3098405 C106.418372,71.5863324 106.713351,73.2367946 106.713351,75.2626873 C106.713351,76.7660106 106.399453,78.119416 105.778717,79.3256824 C105.157887,80.5319488 104.232759,81.5603674 103.00197,82.3996342 C101.771228,83.240361 100.225223,83.8833169 98.3738859,84.3275127 C96.5222664,84.7730273 94.3568904,85 91.8656162,85 C90.9120639,85 89.9100857,84.970657 88.8604816,84.9201663 C87.8107364,84.8711827 86.770874,84.7534339 85.7294116,84.5643763 C84.698632,84.3765433 83.7168901,84.10054 82.7810798,83.7348591 C81.8464931,83.3691783 81.025512,82.8647893 80.3194541,82.2217863 C79.6136315,81.5800079 79.0509217,80.778562 78.6302895,79.810478 C78.2108809,78.8507777 78,77.6851111 78,76.320496 Z M86.9033511,75.4013013 C86.9033511,75.7180928 86.9520123,76.0443984 87.0371458,76.3597299 C87.1237383,76.6762859 87.3239363,76.9636402 87.6485168,77.2102064 C87.9717325,77.4579971 88.4586739,77.6656119 89.1172941,77.8236779 C89.7665493,77.9821679 90.6536513,78.0606828 91.7804826,78.0606828 C92.8961605,78.0606828 93.7928629,77.9821679 94.470543,77.8337101 C95.148223,77.6851111 95.6730486,77.4875285 96.0448314,77.2395965 C96.4182143,76.9929833 96.6656616,76.705676 96.7899971,76.3694795 C96.9130148,76.0443984 96.980877,75.6884672 96.980877,75.313178 C96.980877,74.5608099 96.7522541,74.0466713 96.2937376,73.7803233 C95.8352212,73.5127508 95.225215,73.3754086 94.4514832,73.3754086 L88.3059135,73.3754086 C87.886646,73.6122251 87.552465,73.8896885 87.2956525,74.2147695 C87.0371458,74.5313256 86.9033511,74.9265379 86.9033511,75.4013013 Z M88.7928548,52.4967458 C88.7928548,54.5142076 89.7477248,55.521714 91.6464526,55.521714 C93.6022184,55.521714 94.5759128,54.5242398 94.5759128,52.5277373 C94.5759128,51.5187708 94.3378306,50.7481752 93.8606309,50.214396 C93.392514,49.6807582 92.6674905,49.4130444 91.7032553,49.4130444 C89.7665493,49.4130444 88.7928548,50.44151 88.7928548,52.4967458 Z" id="Fill-8" fill="#FFFFFF"></path>
            </g>
        </g>
    </g>
</svg>