<?xml version="1.0" encoding="UTF-8"?>
<!DOCTYPE svg PUBLIC "-//W3C//DTD SVG 1.1//EN" "http://www.w3.org/Graphics/SVG/1.1/DTD/svg11.dtd">
<!-- Creator: CorelDRAW X7 -->
<svg xmlns="http://www.w3.org/2000/svg" xml:space="preserve" width="99.5149mm" height="28.4297mm" version="1.1" style="shape-rendering:geometricPrecision; text-rendering:geometricPrecision; image-rendering:optimizeQuality; fill-rule:evenodd; clip-rule:evenodd"
viewBox="0 0 9354 2672"
 xmlns:xlink="http://www.w3.org/1999/xlink">
 <defs>
  <style type="text/css">
   <![CDATA[
    .fil3 {fill:#FEFEFE;fill-rule:nonzero}
    .fil1 {fill:#1E478A;fill-rule:nonzero}
    .fil2 {fill:url(#id0)}
    .fil0 {fill:url(#id1)}
   ]]>
  </style>
  <radialGradient id="id0" gradientUnits="userSpaceOnUse" gradientTransform="matrix(1.44862 -0.389205 0.389211 1.44863 -4124 2691)" cx="8213.77" cy="1127.18" r="631.266" fx="8213.77" fy="1127.18">
   <stop offset="0" style="stop-opacity:1; stop-color:#AEC928"/>
   <stop offset="0.709804" style="stop-opacity:1; stop-color:#0A823D"/>
   <stop offset="1" style="stop-opacity:1; stop-color:#AEC928"/>
  </radialGradient>
  <radialGradient id="id1" gradientUnits="userSpaceOnUse" gradientTransform="matrix(1.43569 -0.990455 0.990455 1.43569 -5023 7900)" xlink:href="#id0" cx="8551.91" cy="1309.36" r="1149.03" fx="8551.91" fy="1309.36">
  </radialGradient>
 </defs>
 <g id="Слой_x0020_1">
  <metadata id="CorelCorpID_0Corel-Layer"/>
  <g id="_2371822062272">
   <path class="fil0" d="M8962 2281c522,-522 522,-1368 0,-1890 -522,-521 -1367,-521 -1889,0 -522,522 -522,1368 0,1890 522,522 1367,522 1889,0z"/>
   <path class="fil1" d="M5787 346c0,-113 34,-199 103,-257 69,-59 152,-89 249,-89 93,0 174,30 243,89 69,58 103,144 103,257l0 1960c0,57 -10,109 -30,154 -20,45 -46,83 -77,114 -31,32 -68,55 -109,72 -41,16 -84,24 -130,24 -60,0 -118,-15 -176,-45 -58,-30 -108,-78 -150,-143l-684 -1017 0 860c0,112 -34,198 -103,257 -69,59 -152,88 -250,88 -92,0 -172,-29 -240,-88 -67,-59 -101,-145 -101,-257l0 -1964c0,-55 9,-105 28,-150 19,-46 44,-84 77,-115 32,-31 69,-55 109,-71 40,-17 82,-25 127,-25 63,0 123,15 181,43 57,29 107,76 150,141l680 1018 0 -856z"/>
   <path class="fil1" d="M2605 2655c-241,0 -362,-123 -362,-367l0 -1905c0,-245 121,-368 362,-368l1241 0c115,0 205,37 269,109 64,72 96,158 96,257 0,100 -32,186 -96,258 -64,72 -154,109 -269,109l-875 0 0 251 729 0c105,0 187,33 246,100 59,66 88,144 88,234 0,90 -29,169 -88,235 -59,66 -141,99 -246,99l-729 0 0 256 875 0c115,0 205,35 269,107 64,71 96,157 96,257 0,100 -32,187 -96,259 -64,73 -154,109 -269,109l-1241 0z"/>
   <path class="fil1" d="M728 2306c0,120 -36,211 -108,272 -73,61 -158,92 -256,92 -100,0 -186,-31 -257,-92 -71,-61 -107,-152 -107,-272l0 -1945c0,-115 36,-204 107,-267 71,-62 157,-94 257,-94 98,0 183,32 256,94 72,63 108,152 108,267l0 623 597 -845c37,-51 75,-89 119,-109 43,-20 98,-30 163,-30 120,0 214,35 280,104 66,68 99,155 99,261 0,42 -6,84 -18,123 -13,40 -36,74 -64,106l-612 690 615 789c57,73 87,149 87,229 0,113 -35,202 -105,269 -70,66 -162,99 -274,99 -55,0 -107,-11 -156,-34 -49,-22 -91,-59 -126,-109l-605 -845 0 624z"/>
   <path class="fil2" d="M8598 1976c0,109 -84,164 -253,164l-631 0c-142,0 -214,-55 -214,-165 0,-44 26,-96 77,-154 86,-94 171,-189 255,-283 103,-114 185,-212 246,-293 68,-91 103,-168 103,-231 0,-43 -12,-78 -36,-106 -23,-28 -56,-42 -99,-42 -44,0 -82,19 -113,56 -19,24 -40,65 -65,123 -24,58 -44,97 -60,117 -24,30 -59,45 -104,45 -53,0 -96,-18 -128,-53 -32,-35 -48,-79 -48,-131 0,-42 9,-89 28,-142 36,-104 100,-188 194,-252 93,-64 195,-96 307,-96 144,0 262,40 355,122 97,86 145,200 145,343 0,128 -65,277 -194,445 -66,83 -181,206 -345,369l327 0c169,0 253,55 253,164z"/>
   <path class="fil3" d="M8530 2101c-42,26 -103,39 -185,39l-631 0c-142,0 -214,-55 -214,-165 0,-44 26,-96 77,-154 86,-94 171,-189 255,-283 103,-114 185,-212 246,-293 68,-91 103,-168 103,-231 0,-43 -12,-78 -36,-106 -23,-28 -56,-42 -99,-42 -37,0 -70,13 -98,40 -15,9 -29,21 -42,36 -18,24 -40,65 -64,123 -24,58 -44,96 -60,116 -2,4 -5,7 -8,9 -19,11 -43,17 -70,17 -53,0 -96,-18 -128,-53 -32,-35 -48,-79 -48,-131 0,-42 9,-89 28,-142 31,-90 84,-166 159,-227l8 -5c94,-64 196,-97 307,-97 145,0 263,41 356,123 97,85 145,200 145,342 0,129 -65,278 -195,446 -65,83 -180,206 -344,369l327 0c169,0 253,54 253,164 0,44 -14,79 -42,105z"/>
  </g>
 </g>
</svg>
