<svg width="25px" height="25px" viewBox="0 0 25 25" version="1.1" xmlns="http://www.w3.org/2000/svg" xmlns:xlink="http://www.w3.org/1999/xlink">
                <g id="Личкаб" stroke="none" stroke-width="1" fill="none" fill-rule="evenodd">
                    <g id="Личный-кабинет" transform="translate(-806.000000, -1256.000000)" fill="#2B5DA8" fill-rule="nonzero" stroke="#2B5DA8" stroke-width="0.4">
                        <g id="man" transform="translate(807.000000, 1257.000000)">
                            <path d="M11.5,23 C5.1589697,23 0,17.8410303 0,11.5 C0,5.1589697 5.1589697,0 11.5,0 C17.8410303,0 23,5.1589697 23,11.5 C23,17.8410303 17.8410303,23 11.5,23 Z M11.5,0.696969697 C5.543,0.696969697 0.696969697,5.543 0.696969697,11.5 C0.696969697,17.457 5.543,22.3030303 11.5,22.3030303 C17.457,22.3030303 22.3030303,17.457 22.3030303,11.5 C22.3030303,5.543 17.457,0.696969697 11.5,0.696969697 Z" id="Shape"></path>
                            <path d="M11.5,23 C9.07137045,23 6.7374822,22.2703714 4.74862196,20.8897321 C4.64256826,20.8159417 4.58600629,20.6897394 4.60297489,20.5635371 C4.61994348,20.4373348 4.70761453,20.3297525 4.83063681,20.2856162 C7.76196086,19.227034 8.23496033,18.367755 8.23496033,16.7209185 C8.23496033,16.2857619 8.13456283,16.1430085 7.95356453,15.8837076 C7.71388319,15.5430304 7.38582377,15.0761508 7.15533374,13.8568849 C7.12139656,13.6817189 7.09240855,13.6679263 6.93191397,13.592067 C6.50345705,13.390695 6.10964434,13.1010504 6.00641875,11.7797192 C6.00641875,11.1397426 6.23266662,10.7859624 6.42002814,10.6018311 C6.37902072,10.3742532 6.31185338,9.98185373 6.24892819,9.55428311 C5.92864604,7.63918048 5.91450555,5.29374872 8.67614369,4.20344362 C11.0828555,3.25175417 13.0038414,3.77173522 13.6069334,4.39171262 C14.0339762,4.40481559 15.1355206,4.51377714 15.9019352,5.38340062 C17.0812523,6.7212829 16.7058222,9.77151657 16.5771438,10.598383 C16.7652123,10.7783764 16.9935813,11.1273292 16.9935813,11.7535133 C16.8903557,13.1010504 16.496543,13.3913846 16.067379,13.592067 C15.9061774,13.6679263 15.8771894,13.6810293 15.8439592,13.8568849 C15.6134692,15.0761508 15.2861168,15.5430304 15.0464355,15.8837076 C14.8647301,16.1423189 14.7650397,16.2857619 14.7650397,16.7209185 C14.7650397,18.367755 15.2380391,19.227034 18.1693632,20.2856162 C18.2923855,20.3297525 18.3800565,20.4366451 18.3970251,20.5635371 C18.4139937,20.690429 18.3574317,20.8159417 18.251378,20.8897321 C16.2625178,22.2703714 13.9286296,23 11.5,23 Z M5.71441758,20.690429 C7.45511218,21.7524593 9.44185135,22.31037 11.5,22.31037 C13.5581487,22.31037 15.5448878,21.7524593 17.2855824,20.690429 C14.8293789,19.7070166 14.0580151,18.7153286 14.0580151,16.7216081 C14.0580151,16.0726662 14.2545679,15.7919868 14.4631402,15.4947563 C14.6780756,15.1885605 14.9453309,14.8078848 15.1496611,13.7320619 C15.2479375,13.2120808 15.5569072,13.0672585 15.7612374,12.9714 C15.981122,12.8686451 16.2073699,12.7624421 16.2872637,11.727997 C16.2865566,11.2011196 16.0440472,11.0576766 16.0341489,11.0521596 C15.9040563,10.9790588 15.8199204,10.8252713 15.8474944,10.6818282 C16.0228365,9.7653099 16.3113025,6.90679338 15.3660106,5.83303941 C14.7204971,5.10065231 13.7030887,5.08065303 13.509364,5.08823896 C13.4768408,5.08548044 13.4450247,5.08479081 13.4146227,5.07720488 C13.3227095,5.05444709 13.167164,4.9765189 13.1197934,4.89652181 C12.9274827,4.57515421 11.2525414,3.92897087 8.94127792,4.84135141 C6.65688139,5.7433875 6.65193222,7.67711014 6.94817553,9.44945934 C7.04574493,10.1094353 7.15250565,10.6797593 7.15321267,10.6825179 C7.18220068,10.8376846 7.0994788,10.9921617 6.9531247,11.0576766 C6.95524578,11.0576766 6.71344336,11.2018093 6.71344336,11.7528237 C6.79263012,12.7603732 7.01958502,12.8672658 7.23876265,12.9700207 C7.44309276,13.0658793 7.75276954,13.2107016 7.85104596,13.7306826 C8.05466905,14.8065055 8.32192436,15.1871813 8.53685984,15.493377 C8.74613913,15.7906076 8.94269197,16.071287 8.94269197,16.7202289 C8.94269197,18.7160182 8.17132811,19.7077062 5.71441758,20.690429 Z" id="Shape"></path>
                        </g>
                    </g>
                </g>
            </svg>